<?xml version="1.0" encoding="utf-8"?>
<!-- Generator: Adobe Illustrator 27.5.0, SVG Export Plug-In . SVG Version: 6.00 Build 0)  -->
<svg version="1.1" xmlns="http://www.w3.org/2000/svg" xmlns:xlink="http://www.w3.org/1999/xlink" x="0px" y="0px"
	 viewBox="0 0 500 500" style="enable-background:new 0 0 500 500;" xml:space="preserve">
<g id="Background_Simple">
	<g>
		<path style="fill:#92E3A9;" d="M456.99,118.954c-51.542-72.68-164.773-107.881-240.569-82.157
			c-38.03,12.907-67.601,39.92-99.396,62.86c-32.759,23.636-70.238,45.197-86.009,82.525c-12.448,29.465-7.866,64.583,10.045,94.772
			c20.375,34.341,55.873,56.74,85.888,82.371c20.877,17.828,39.979,37.649,62.342,53.747
			c50.674,36.479,112.286,42.698,165.049,23.586c44.72-16.198,50.846-52.367,61.295-94.176
			c12.863-51.467,46.999-92.943,58.164-144.497C479.506,171.63,474.187,143.204,456.99,118.954z"/>
		<path style="opacity:0.7;fill:#FFFFFF;" d="M456.99,118.954c-51.542-72.68-164.773-107.881-240.569-82.157
			c-38.03,12.907-67.601,39.92-99.396,62.86c-32.759,23.636-70.238,45.197-86.009,82.525c-12.448,29.465-7.866,64.583,10.045,94.772
			c20.375,34.341,55.873,56.74,85.888,82.371c20.877,17.828,39.979,37.649,62.342,53.747
			c50.674,36.479,112.286,42.698,165.049,23.586c44.72-16.198,50.846-52.367,61.295-94.176
			c12.863-51.467,46.999-92.943,58.164-144.497C479.506,171.63,474.187,143.204,456.99,118.954z"/>
	</g>
</g>
<g id="Plants">
	<g>
		<g>
			
				<line style="fill:none;stroke:#263238;stroke-width:2;stroke-miterlimit:10;" x1="407.487" y1="298.101" x2="421.587" y2="433.203"/>
			<g>
				<g>
					
						<line style="fill:none;stroke:#263238;stroke-width:2;stroke-miterlimit:10;" x1="419.314" y1="407.348" x2="412.922" y2="400.597"/>
					<path style="fill:#92E3A9;stroke:#263238;stroke-miterlimit:10;" d="M414.864,402.62c0,0,0.183-2.986-2.544-5.422
						c-1.641-1.465-10.275-5.098-11.095-2.057C400.334,398.449,409.172,404.945,414.864,402.62z"/>
					
						<line style="fill:none;stroke:#263238;stroke-width:0.5;stroke-miterlimit:10;" x1="414.864" y1="402.62" x2="406.644" y2="397.497"/>
				</g>
				<g>
					
						<line style="fill:none;stroke:#263238;stroke-width:2;stroke-miterlimit:10;" x1="420.918" y1="422.713" x2="414.526" y2="415.962"/>
					<path style="fill:#92E3A9;stroke:#263238;stroke-miterlimit:10;" d="M416.468,417.985c0,0,0.183-2.986-2.544-5.422
						c-1.641-1.465-10.275-5.098-11.095-2.057C401.938,413.814,410.776,420.31,416.468,417.985z"/>
					
						<line style="fill:none;stroke:#263238;stroke-width:0.5;stroke-miterlimit:10;" x1="416.468" y1="417.985" x2="408.248" y2="412.862"/>
				</g>
				<g>
					
						<line style="fill:none;stroke:#263238;stroke-width:2;stroke-miterlimit:10;" x1="415.401" y1="369.855" x2="409.009" y2="363.103"/>
					<path style="fill:#92E3A9;stroke:#263238;stroke-miterlimit:10;" d="M410.951,365.126c0,0,0.183-2.987-2.544-5.422
						c-1.641-1.465-10.275-5.098-11.095-2.057C396.421,360.955,405.259,367.451,410.951,365.126z"/>
					
						<line style="fill:none;stroke:#263238;stroke-width:0.5;stroke-miterlimit:10;" x1="410.951" y1="365.126" x2="402.731" y2="360.004"/>
				</g>
				<g>
					
						<line style="fill:none;stroke:#263238;stroke-width:2;stroke-miterlimit:10;" x1="417.005" y1="385.22" x2="410.613" y2="378.469"/>
					<path style="fill:#92E3A9;stroke:#263238;stroke-miterlimit:10;" d="M412.555,380.491c0,0,0.183-2.986-2.544-5.422
						c-1.641-1.465-10.275-5.098-11.095-2.057C398.025,376.32,406.863,382.816,412.555,380.491z"/>
					
						<line style="fill:none;stroke:#263238;stroke-width:0.5;stroke-miterlimit:10;" x1="412.555" y1="380.491" x2="404.335" y2="375.369"/>
				</g>
				<g>
					
						<line style="fill:none;stroke:#263238;stroke-width:2;stroke-miterlimit:10;" x1="412.796" y1="344.895" x2="406.405" y2="338.144"/>
					<path style="fill:#92E3A9;stroke:#263238;stroke-miterlimit:10;" d="M408.347,340.167c0,0,0.183-2.986-2.544-5.422
						c-1.641-1.465-10.275-5.098-11.095-2.057C393.817,335.996,402.655,342.492,408.347,340.167z"/>
					
						<line style="fill:none;stroke:#263238;stroke-width:0.5;stroke-miterlimit:10;" x1="408.347" y1="340.167" x2="400.126" y2="335.044"/>
				</g>
				<g>
					
						<line style="fill:none;stroke:#263238;stroke-width:2;stroke-miterlimit:10;" x1="410.18" y1="319.827" x2="403.788" y2="313.076"/>
					<path style="fill:#92E3A9;stroke:#263238;stroke-miterlimit:10;" d="M405.73,315.098c0,0,0.183-2.986-2.544-5.422
						c-1.641-1.465-10.275-5.098-11.095-2.057C391.201,310.927,400.038,317.423,405.73,315.098z"/>
					
						<line style="fill:none;stroke:#263238;stroke-width:0.5;stroke-miterlimit:10;" x1="405.73" y1="315.098" x2="397.51" y2="309.976"/>
				</g>
				<g>
					
						<line style="fill:none;stroke:#263238;stroke-width:2;stroke-miterlimit:10;" x1="418.24" y1="398.257" x2="423.1" y2="390.332"/>
					<path style="fill:#92E3A9;stroke:#263238;stroke-miterlimit:10;" d="M421.618,392.712c0,0-0.796-2.884,1.37-5.83
						c1.303-1.772,9.001-7.11,10.431-4.303C434.973,385.631,427.667,393.811,421.618,392.712z"/>
					
						<line style="fill:none;stroke:#263238;stroke-width:0.5;stroke-miterlimit:10;" x1="421.618" y1="392.712" x2="429.02" y2="385.637"/>
				</g>
				<g>
					
						<line style="fill:none;stroke:#263238;stroke-width:2;stroke-miterlimit:10;" x1="414.02" y1="357.824" x2="418.88" y2="349.898"/>
					<path style="fill:#92E3A9;stroke:#263238;stroke-miterlimit:10;" d="M417.398,352.278c0,0-0.796-2.884,1.37-5.83
						c1.303-1.773,9.001-7.11,10.431-4.303C430.754,345.197,423.447,353.378,417.398,352.278z"/>
					
						<line style="fill:none;stroke:#263238;stroke-width:0.5;stroke-miterlimit:10;" x1="417.398" y1="352.278" x2="424.8" y2="345.204"/>
				</g>
				<g>
					
						<line style="fill:none;stroke:#263238;stroke-width:2;stroke-miterlimit:10;" x1="412.166" y1="340.055" x2="417.026" y2="332.129"/>
					<path style="fill:#92E3A9;stroke:#263238;stroke-miterlimit:10;" d="M415.543,334.509c0,0-0.796-2.884,1.37-5.83
						c1.303-1.772,9.001-7.109,10.431-4.303C428.899,327.428,421.593,335.609,415.543,334.509z"/>
					
						<line style="fill:none;stroke:#263238;stroke-width:0.5;stroke-miterlimit:10;" x1="415.543" y1="334.509" x2="422.945" y2="327.435"/>
				</g>
				<g>
					
						<line style="fill:none;stroke:#263238;stroke-width:2;stroke-miterlimit:10;" x1="409.447" y1="314.005" x2="414.307" y2="306.08"/>
					<path style="fill:#92E3A9;stroke:#263238;stroke-miterlimit:10;" d="M412.825,308.46c0,0-0.796-2.884,1.37-5.83
						c1.303-1.773,9.001-7.11,10.431-4.303C426.181,301.379,418.874,309.56,412.825,308.46z"/>
					
						<line style="fill:none;stroke:#263238;stroke-width:0.5;stroke-miterlimit:10;" x1="412.825" y1="308.46" x2="420.227" y2="301.385"/>
					<path style="fill:#92E3A9;stroke:#263238;stroke-miterlimit:10;" d="M407.368,297.35c0,0-0.796-2.884,1.37-5.83
						c1.303-1.772,9.001-7.11,10.431-4.303C420.724,290.269,413.418,298.45,407.368,297.35z"/>
					
						<line style="fill:none;stroke:#263238;stroke-width:0.5;stroke-miterlimit:10;" x1="407.368" y1="297.35" x2="414.77" y2="290.276"/>
					<path style="fill:#92E3A9;stroke:#263238;stroke-miterlimit:10;" d="M407.797,297.656c0,0-2.952,0.489-5.654-1.974
						c-1.626-1.482-6.127-9.697-3.186-10.825C402.156,283.631,409.525,291.755,407.797,297.656z"/>
					
						<line style="fill:none;stroke:#263238;stroke-width:0.5;stroke-miterlimit:10;" x1="407.797" y1="297.656" x2="401.538" y2="289.553"/>
				</g>
			</g>
		</g>
		<g>
			
				<line style="fill:none;stroke:#263238;stroke-width:2;stroke-miterlimit:10;" x1="444.675" y1="316.707" x2="430.655" y2="451.818"/>
			<g>
				<g>
					
						<line style="fill:none;stroke:#263238;stroke-width:2;stroke-miterlimit:10;" x1="433.755" y1="426.048" x2="428.89" y2="418.126"/>
					<path style="fill:#92E3A9;stroke:#263238;stroke-miterlimit:10;" d="M430.374,420.505c0,0,0.794-2.885-1.373-5.829
						c-1.304-1.772-9.006-7.104-10.434-4.297C417.014,413.432,424.325,421.608,430.374,420.505z"/>
					
						<line style="fill:none;stroke:#263238;stroke-width:0.5;stroke-miterlimit:10;" x1="430.374" y1="420.505" x2="423.385" y2="413.8"/>
				</g>
				<g>
					
						<line style="fill:none;stroke:#263238;stroke-width:2;stroke-miterlimit:10;" x1="437.646" y1="388.553" x2="432.781" y2="380.63"/>
					<path style="fill:#92E3A9;stroke:#263238;stroke-miterlimit:10;" d="M434.265,383.009c0,0,0.794-2.885-1.373-5.829
						c-1.304-1.772-9.006-7.104-10.434-4.297C420.905,375.936,428.216,384.112,434.265,383.009z"/>
					
						<line style="fill:none;stroke:#263238;stroke-width:0.5;stroke-miterlimit:10;" x1="434.265" y1="383.009" x2="427.275" y2="376.304"/>
				</g>
				<g>
					
						<line style="fill:none;stroke:#263238;stroke-width:2;stroke-miterlimit:10;" x1="436.051" y1="403.918" x2="431.186" y2="395.996"/>
					<path style="fill:#92E3A9;stroke:#263238;stroke-miterlimit:10;" d="M432.67,398.375c0,0,0.794-2.885-1.373-5.829
						c-1.304-1.772-9.006-7.104-10.434-4.297C419.31,391.302,426.622,399.478,432.67,398.375z"/>
					
						<line style="fill:none;stroke:#263238;stroke-width:0.5;stroke-miterlimit:10;" x1="432.67" y1="398.375" x2="425.681" y2="391.67"/>
				</g>
				<g>
					
						<line style="fill:none;stroke:#263238;stroke-width:2;stroke-miterlimit:10;" x1="440.236" y1="363.592" x2="435.371" y2="355.669"/>
					<path style="fill:#92E3A9;stroke:#263238;stroke-miterlimit:10;" d="M436.855,358.048c0,0,0.794-2.885-1.373-5.829
						c-1.304-1.772-9.006-7.104-10.434-4.297C423.495,350.975,430.806,359.151,436.855,358.048z"/>
					
						<line style="fill:none;stroke:#263238;stroke-width:0.5;stroke-miterlimit:10;" x1="436.855" y1="358.048" x2="429.865" y2="351.343"/>
				</g>
				<g>
					
						<line style="fill:none;stroke:#263238;stroke-width:2;stroke-miterlimit:10;" x1="442.837" y1="338.522" x2="437.972" y2="330.599"/>
					<path style="fill:#92E3A9;stroke:#263238;stroke-miterlimit:10;" d="M439.456,332.978c0,0,0.794-2.885-1.373-5.829
						c-1.304-1.772-9.006-7.104-10.434-4.297C426.096,325.905,433.408,334.082,439.456,332.978z"/>
					
						<line style="fill:none;stroke:#263238;stroke-width:0.5;stroke-miterlimit:10;" x1="439.456" y1="332.978" x2="432.467" y2="326.273"/>
				</g>
				<g>
					
						<line style="fill:none;stroke:#263238;stroke-width:2;stroke-miterlimit:10;" x1="434.576" y1="416.931" x2="440.963" y2="410.176"/>
					<path style="fill:#92E3A9;stroke:#263238;stroke-miterlimit:10;" d="M439.023,412.2c0,0-0.185-2.986,2.541-5.423
						c1.64-1.466,10.272-5.104,11.094-2.063C453.55,408.021,444.716,414.522,439.023,412.2z"/>
					
						<line style="fill:none;stroke:#263238;stroke-width:0.5;stroke-miterlimit:10;" x1="439.023" y1="412.2" x2="447.723" y2="406.801"/>
				</g>
				<g>
					
						<line style="fill:none;stroke:#263238;stroke-width:2;stroke-miterlimit:10;" x1="438.771" y1="376.495" x2="445.159" y2="369.74"/>
					<path style="fill:#92E3A9;stroke:#263238;stroke-miterlimit:10;" d="M443.218,371.764c0,0-0.185-2.986,2.541-5.423
						c1.64-1.466,10.272-5.104,11.094-2.063C457.746,367.585,448.912,374.086,443.218,371.764z"/>
					
						<line style="fill:none;stroke:#263238;stroke-width:0.5;stroke-miterlimit:10;" x1="443.218" y1="371.764" x2="451.918" y2="366.365"/>
				</g>
				<g>
					
						<line style="fill:none;stroke:#263238;stroke-width:2;stroke-miterlimit:10;" x1="440.615" y1="358.725" x2="447.003" y2="351.97"/>
					<path style="fill:#92E3A9;stroke:#263238;stroke-miterlimit:10;" d="M445.062,353.994c0,0-0.185-2.986,2.541-5.423
						c1.64-1.466,10.272-5.104,11.094-2.063C459.59,349.815,450.756,356.316,445.062,353.994z"/>
					
						<line style="fill:none;stroke:#263238;stroke-width:0.5;stroke-miterlimit:10;" x1="445.062" y1="353.994" x2="453.762" y2="348.595"/>
				</g>
				<g>
					
						<line style="fill:none;stroke:#263238;stroke-width:2;stroke-miterlimit:10;" x1="443.318" y1="332.674" x2="449.706" y2="325.919"/>
					<path style="fill:#92E3A9;stroke:#263238;stroke-miterlimit:10;" d="M447.766,327.943c0,0-0.185-2.986,2.541-5.423
						c1.64-1.466,10.272-5.104,11.094-2.063C462.293,323.764,453.459,330.265,447.766,327.943z"/>
					
						<line style="fill:none;stroke:#263238;stroke-width:0.5;stroke-miterlimit:10;" x1="447.766" y1="327.943" x2="456.466" y2="322.544"/>
					<path style="fill:#92E3A9;stroke:#263238;stroke-miterlimit:10;" d="M444.714,315.948c0,0-0.185-2.986,2.541-5.423
						c1.64-1.466,10.272-5.104,11.094-2.063C459.241,311.768,450.407,318.27,444.714,315.948z"/>
					
						<line style="fill:none;stroke:#263238;stroke-width:0.5;stroke-miterlimit:10;" x1="444.714" y1="315.948" x2="453.414" y2="310.549"/>
					<path style="fill:#92E3A9;stroke:#263238;stroke-miterlimit:10;" d="M445.07,316.335c0,0-2.989-0.129-5.127-3.095
						c-1.286-1.785-3.998-10.751-0.888-11.249C442.437,301.449,447.976,310.917,445.07,316.335z"/>
					
						<line style="fill:none;stroke:#263238;stroke-width:0.5;stroke-miterlimit:10;" x1="445.07" y1="316.335" x2="440.613" y2="307.117"/>
				</g>
			</g>
		</g>
		
			<line style="fill:none;stroke:#263238;stroke-width:2;stroke-miterlimit:10;" x1="428.609" y1="261.689" x2="428.609" y2="432.546"/>
		<g>
			<g>
				
					<line style="fill:none;stroke:#263238;stroke-width:2;stroke-miterlimit:10;" x1="428.745" y1="406.856" x2="423.088" y2="399.478"/>
				<path style="fill:#92E3A9;stroke:#263238;stroke-miterlimit:10;" d="M424.81,401.691c0,0,0.492-2.951-1.967-5.657
					c-1.48-1.628-9.691-6.137-10.821-3.197C410.791,396.035,418.907,403.413,424.81,401.691z"/>
				
					<line style="fill:none;stroke:#263238;stroke-width:0.5;stroke-miterlimit:10;" x1="424.81" y1="401.691" x2="417.166" y2="395.743"/>
			</g>
			<g>
				
					<line style="fill:none;stroke:#263238;stroke-width:2;stroke-miterlimit:10;" x1="428.745" y1="374.747" x2="423.088" y2="367.369"/>
				<path style="fill:#92E3A9;stroke:#263238;stroke-miterlimit:10;" d="M424.81,369.583c0,0,0.492-2.951-1.967-5.657
					c-1.48-1.628-9.691-6.137-10.821-3.197C410.791,363.926,418.907,371.304,424.81,369.583z"/>
				
					<line style="fill:none;stroke:#263238;stroke-width:0.5;stroke-miterlimit:10;" x1="424.81" y1="369.583" x2="417.166" y2="363.634"/>
			</g>
			<g>
				
					<line style="fill:none;stroke:#263238;stroke-width:2;stroke-miterlimit:10;" x1="428.745" y1="337.05" x2="423.088" y2="329.672"/>
				<path style="fill:#92E3A9;stroke:#263238;stroke-miterlimit:10;" d="M424.81,331.885c0,0,0.492-2.951-1.967-5.656
					c-1.48-1.628-9.691-6.137-10.821-3.197C410.791,326.229,418.907,333.607,424.81,331.885z"/>
				
					<line style="fill:none;stroke:#263238;stroke-width:0.5;stroke-miterlimit:10;" x1="424.81" y1="331.885" x2="417.166" y2="325.937"/>
			</g>
			<g>
				
					<line style="fill:none;stroke:#263238;stroke-width:2;stroke-miterlimit:10;" x1="428.745" y1="311.955" x2="423.088" y2="304.577"/>
				<path style="fill:#92E3A9;stroke:#263238;stroke-miterlimit:10;" d="M424.81,306.79c0,0,0.492-2.951-1.967-5.657
					c-1.48-1.628-9.691-6.137-10.821-3.197C410.791,301.134,418.907,308.512,424.81,306.79z"/>
				
					<line style="fill:none;stroke:#263238;stroke-width:0.5;stroke-miterlimit:10;" x1="424.81" y1="306.79" x2="417.166" y2="300.842"/>
			</g>
			<g>
				
					<line style="fill:none;stroke:#263238;stroke-width:2;stroke-miterlimit:10;" x1="428.745" y1="286.751" x2="423.088" y2="279.372"/>
				<path style="fill:#92E3A9;stroke:#263238;stroke-miterlimit:10;" d="M424.81,281.586c0,0,0.492-2.951-1.967-5.657
					c-1.48-1.628-9.691-6.137-10.821-3.197C410.791,275.929,418.907,283.307,424.81,281.586z"/>
				
					<line style="fill:none;stroke:#263238;stroke-width:0.5;stroke-miterlimit:10;" x1="424.81" y1="281.586" x2="417.166" y2="275.638"/>
			</g>
			<g>
				
					<line style="fill:none;stroke:#263238;stroke-width:2;stroke-miterlimit:10;" x1="428.62" y1="416.661" x2="434.276" y2="409.282"/>
				<path style="fill:#92E3A9;stroke:#263238;stroke-miterlimit:10;" d="M432.555,411.496c0,0-0.492-2.951,1.967-5.657
					c1.48-1.628,9.691-6.137,10.821-3.197C446.573,405.839,438.457,413.217,432.555,411.496z"/>
				
					<line style="fill:none;stroke:#263238;stroke-width:0.5;stroke-miterlimit:10;" x1="432.555" y1="411.496" x2="440.651" y2="405.228"/>
			</g>
			<g>
				
					<line style="fill:none;stroke:#263238;stroke-width:2;stroke-miterlimit:10;" x1="428.62" y1="365.594" x2="434.276" y2="358.216"/>
				<path style="fill:#92E3A9;stroke:#263238;stroke-miterlimit:10;" d="M432.555,360.429c0,0-0.492-2.951,1.967-5.657
					c1.48-1.628,9.691-6.137,10.821-3.197C446.573,354.773,438.457,362.151,432.555,360.429z"/>
				
					<line style="fill:none;stroke:#263238;stroke-width:0.5;stroke-miterlimit:10;" x1="432.555" y1="360.429" x2="440.651" y2="354.161"/>
			</g>
			<g>
				
					<line style="fill:none;stroke:#263238;stroke-width:2;stroke-miterlimit:10;" x1="428.62" y1="340.389" x2="434.276" y2="333.011"/>
				<path style="fill:#92E3A9;stroke:#263238;stroke-miterlimit:10;" d="M432.555,335.225c0,0-0.492-2.951,1.967-5.657
					c1.48-1.628,9.691-6.137,10.821-3.197C446.573,329.568,438.457,336.946,432.555,335.225z"/>
				
					<line style="fill:none;stroke:#263238;stroke-width:0.5;stroke-miterlimit:10;" x1="432.555" y1="335.225" x2="440.651" y2="328.956"/>
			</g>
			<g>
				
					<line style="fill:none;stroke:#263238;stroke-width:2;stroke-miterlimit:10;" x1="428.62" y1="307.076" x2="434.276" y2="299.697"/>
				<path style="fill:#92E3A9;stroke:#263238;stroke-miterlimit:10;" d="M432.555,301.911c0,0-0.492-2.951,1.967-5.657
					c1.48-1.628,9.691-6.137,10.821-3.197C446.573,296.254,438.457,303.632,432.555,301.911z"/>
				
					<line style="fill:none;stroke:#263238;stroke-width:0.5;stroke-miterlimit:10;" x1="432.555" y1="301.911" x2="440.651" y2="295.642"/>
			</g>
			<g>
				
					<line style="fill:none;stroke:#263238;stroke-width:2;stroke-miterlimit:10;" x1="428.62" y1="280.885" x2="434.276" y2="273.507"/>
				<path style="fill:#92E3A9;stroke:#263238;stroke-miterlimit:10;" d="M432.555,275.72c0,0-0.492-2.951,1.967-5.657
					c1.48-1.628,9.691-6.137,10.821-3.197C446.573,270.063,438.457,277.441,432.555,275.72z"/>
				
					<line style="fill:none;stroke:#263238;stroke-width:0.5;stroke-miterlimit:10;" x1="432.555" y1="275.72" x2="440.651" y2="269.452"/>
				<path style="fill:#92E3A9;stroke:#263238;stroke-miterlimit:10;" d="M428.281,264.104c0,0-0.492-2.951,1.968-5.657
					c1.48-1.628,9.691-6.137,10.821-3.197C442.3,258.447,434.184,265.826,428.281,264.104z"/>
				
					<line style="fill:none;stroke:#263238;stroke-width:0.5;stroke-miterlimit:10;" x1="428.281" y1="264.104" x2="436.378" y2="257.836"/>
				<path style="fill:#92E3A9;stroke:#263238;stroke-miterlimit:10;" d="M428.676,264.452c0,0-2.987,0.18-5.419-2.55
					c-1.464-1.642-5.087-10.281-2.045-11.097C424.521,249.917,431.007,258.763,428.676,264.452z"/>
				
					<line style="fill:none;stroke:#263238;stroke-width:0.5;stroke-miterlimit:10;" x1="428.676" y1="264.452" x2="423.291" y2="255.743"/>
			</g>
		</g>
		<polygon style="fill:#263238;stroke:#263238;stroke-miterlimit:10;" points="435.638,476.859 417.543,476.859 415.281,431.161 
			437.9,431.161 		"/>
	</g>
</g>
<g id="Bricks">
	<g>
		<rect x="370.117" y="322.398" style="opacity:0.2;" width="42" height="17"/>
		<rect x="101.161" y="401.841" style="opacity:0.2;" width="42" height="17"/>
		<rect x="38.161" y="282.341" style="opacity:0.2;" width="42" height="17"/>
		<rect x="354.117" y="261.898" style="opacity:0.2;" width="42" height="17"/>
		<rect x="387.161" y="163.841" style="opacity:0.2;" width="42" height="17"/>
		<rect x="231.161" y="184.841" style="opacity:0.2;" width="42" height="17"/>
		<rect x="234.161" y="328.841" style="opacity:0.2;" width="42" height="17"/>
		<rect x="186.161" y="328.841" style="opacity:0.2;" width="42" height="17"/>
		<rect x="66.161" y="188.841" style="opacity:0.2;" width="42" height="17"/>
		<rect x="113.161" y="188.841" style="opacity:0.2;" width="42" height="17"/>
		<rect x="284.161" y="184.841" style="opacity:0.2;" width="42" height="17"/>
		<rect x="331.117" y="285.398" style="opacity:0.1;" width="42" height="17"/>
		<rect x="420.161" y="397.841" style="opacity:0.1;" width="42" height="17"/>
		<rect x="379.117" y="285.398" style="opacity:0.1;" width="42" height="17"/>
		<rect x="96.161" y="166.341" style="opacity:0.1;" width="42" height="17"/>
		<rect x="52.161" y="131.341" style="opacity:0.1;" width="42" height="17"/>
		<rect x="441.161" y="164.341" style="opacity:0.1;" width="42" height="17"/>
		<rect x="413.161" y="193.341" style="opacity:0.1;" width="42" height="17"/>
		<rect x="257.161" y="164.341" style="opacity:0.1;" width="42" height="17"/>
		<rect x="217.161" y="308.841" style="opacity:0.1;" width="42" height="17"/>
		<rect x="191.161" y="357.841" style="opacity:0.1;" width="42" height="17"/>
		<rect x="232.161" y="399.841" style="opacity:0.1;" width="42" height="17"/>
		<rect x="58.161" y="308.841" style="opacity:0.1;" width="42" height="17"/>
		<rect x="365.715" y="74.311" style="opacity:0.2;" width="42" height="17"/>
		<rect x="385.715" y="100.811" style="opacity:0.1;" width="42" height="17"/>
		<rect x="39.161" y="357.841" style="opacity:0.1;" width="42" height="17"/>
		<rect x="287.117" y="322.398" style="opacity:0.2;" width="42" height="17"/>
	</g>
</g>
<g id="Letter">
	<g>
		<g>
			<rect x="132.943" y="116.077" style="fill:#FFFFFF;stroke:#263238;stroke-miterlimit:10;" width="259.974" height="157.087"/>
			<line style="fill:none;stroke:#263238;stroke-miterlimit:10;" x1="132.943" y1="273.164" x2="233.993" y2="177.625"/>
			<line style="fill:none;stroke:#263238;stroke-miterlimit:10;" x1="392.328" y1="273.164" x2="291.278" y2="177.625"/>
		</g>
		<polygon style="fill:#92E3A9;stroke:#263238;stroke-miterlimit:10;" points="262.93,28 132.943,116.077 262.93,194.62 
			392.918,116.077 		"/>
		<g>
			<polygon style="fill:#FFFFFF;stroke:#263238;stroke-miterlimit:10;" points="262.93,194.62 371.789,128.844 371.789,69.226 
				156.828,69.226 156.828,130.509 			"/>
			<line style="fill:none;stroke:#263238;stroke-miterlimit:10;" x1="189.44" y1="94.03" x2="339.177" y2="94.03"/>
			<line style="fill:none;stroke:#263238;stroke-miterlimit:10;" x1="189.44" y1="113.321" x2="339.177" y2="113.321"/>
			<line style="fill:none;stroke:#263238;stroke-miterlimit:10;" x1="189.44" y1="132.612" x2="339.177" y2="132.612"/>
		</g>
	</g>
</g>
<g id="Character">
	<g>
		<path style="fill:#B8B8B8;stroke:#263238;stroke-miterlimit:10;" d="M179.834,231.68c-2.242,0.669-3.858,2.819-4.03,5.391
			c-0.729,10.91-2.64,41.363-2.372,56.903c0.33,19.142,1.127,101.19,1.127,101.19l171.788-3.065c0,0,0.01-106.681-0.344-127.19
			c-0.207-12.006-1.002-21.423-1.626-27.169c-0.385-3.548-3.178-6.161-6.392-5.978l-81.781,4.66
			C256.206,236.422,204.03,224.462,179.834,231.68z"/>
		<g>
			<path style="fill:#9E9E9E;stroke:#263238;stroke-miterlimit:10;" d="M285.511,275.812c0,0-6.737,2.143-13.78,2.45
				c-7.043,0.306-8.574,7.961-8.574,13.779c0,5.818-3.674,20.516-3.674,25.722c0,5.206,1.531,6.737,0,12.249
				c-1.531,5.512-2.45,7.962-3.062,9.186c-0.612,1.225,27.253,33.071,33.071,37.358c5.818,4.287,10.411,13.167,12.861,13.473
				c2.45,0.306,8.574-7.962,9.493-11.636c0.919-3.675,3.981-20.516,6.43-29.703c2.45-9.186,12.555-31.846,15.617-39.501
				c3.062-7.655-3.062-30.927-9.799-32.152c-6.737-1.225-11.636-1.837-20.822-1.837C294.085,275.2,285.511,275.812,285.511,275.812z
				"/>
			<g>
				<path style="fill:none;stroke:#263238;stroke-miterlimit:10;" d="M293.222,355.345c5.31,3.599,12.884,10.079,15.561,19.067"/>
				<path style="fill:none;stroke:#263238;stroke-miterlimit:10;" d="M287.655,352.059c0,0,1.053,0.498,2.698,1.469"/>
				<path style="fill:none;stroke:#263238;stroke-miterlimit:10;" d="M307.741,361.005c0.517,0.967,0.974,1.874,1.348,2.69"/>
				<path style="fill:none;stroke:#263238;stroke-miterlimit:10;" d="M295.616,341.648c0,0,6.283,9.139,10.592,16.608"/>
			</g>
			<path style="fill:#FFFFFF;stroke:#263238;stroke-miterlimit:10;" d="M276.824,269.733c0,0,2.116,6.733,1.731,10.004
				c-0.385,3.27-2.309,7.118,3.463,8.465c5.771,1.347,13.274-2.309,14.236-4.04c0.962-1.731-0.962-10.966-1.924-14.621
				c-0.962-3.655-2.116-7.118-2.116-7.118S285.289,271.272,276.824,269.733z"/>
			<polyline style="fill:#263238;stroke:#263238;stroke-miterlimit:10;" points="284.077,274.094 293.394,276.423 293.727,261.782 
				284.077,274.094 			"/>
			<path style="fill:#FFFFFF;stroke:#263238;stroke-miterlimit:10;" d="M347.283,295.016c0,0,7.372,8.555,11.643,15.089
				c4.272,6.535,0.304,14.294-3.651,15.861c-3.955,1.567-27.892-14.153-27.892-14.153s-2.455-6.258-0.205-10.872
				C329.428,296.327,341.761,292.628,347.283,295.016z"/>
			<path style="fill:#9E9E9E;stroke:#263238;stroke-miterlimit:10;" d="M316.778,277.678c0,0,7.377-1.666,13.853,0.558
				c6.476,2.224,14.223,12.384,14.223,12.384s-8.082-1.848-13.076,4.516c-4.994,6.364-6.586,14.795-6.586,14.795
				s-9.227-4.5-11.663-12.924"/>
			<path style="fill:#9E9E9E;stroke:#263238;stroke-miterlimit:10;" d="M319.183,308.707l9.181,4.803c0,0-1.271-7.937,5.586-14.327
				c5.06-4.717,11.692-3.121,14.819-1.961c0.634,0.235,1.23-0.419,0.94-1.03c-1.145-2.417-3.197-6.606-4.441-8.296
				c-1.797-2.441-15.367-0.788-19.92,4.714C320.794,298.112,316.873,305.568,319.183,308.707z"/>
			<path style="fill:#263238;stroke:#263238;stroke-miterlimit:10;" d="M269.898,216.06c0,0-7.118,0.192-11.543,3.848
				c-4.425,3.655-9.042,18.468-11.543,25.201c-2.501,6.733-7.887,32.896-4.425,40.207c3.463,7.31,12.697,18.661,22.7,19.622
				c10.004,0.962,15.583-5.964,15.583-5.964s-1.347,3.848-3.078-0.385c-1.731-4.232,1.539-9.811,1.924-16.929
				c0.385-7.118-1.731-9.426-5.387-15.198c-3.655-5.771-8.849-23.085-5.194-27.51c3.655-4.425,16.16,0.77,19.045,6.541
				c2.886,5.771,5.579,9.426,5.964,13.851c0.385,4.425-4.425,20.392,2.886,25.971c7.31,5.579,19.815,3.27,22.7-2.501
				c2.886-5.771,1.539-7.503,1.539-7.503s-2.501,3.848-3.655-1.924s4.425-16.544,0.962-24.624
				c-3.463-8.08-7.695-16.544-15.967-23.278c-8.272-6.733-11.158-13.274-19.045-13.466
				C275.477,211.827,270.668,213.944,269.898,216.06z"/>
			<g>
				<path style="fill:#FFFFFF;stroke:#263238;stroke-miterlimit:10;" d="M278.39,228.59c0,0-12.371,2.006-15.38,7.355
					c-3.009,5.349,0.334,18.054,1.337,22.735c1.003,4.681,8.024,10.699,11.033,12.036c3.009,1.337,5.349,3.343,9.696,3.343
					c4.346,0,12.036-17.386,12.036-17.386s-3.009-7.69-8.358-15.38C283.405,233.605,282.737,229.258,278.39,228.59z"/>
				<path style="fill:#263238;" d="M271.053,250.303c0,0.85-0.689,1.539-1.539,1.539c-0.85,0-1.539-0.689-1.539-1.539
					c0-0.85,0.689-1.539,1.539-1.539C270.364,248.764,271.053,249.453,271.053,250.303z"/>
				<path style="fill:#263238;" d="M282.403,246.263c0,0.85-0.689,1.539-1.539,1.539c-0.85,0-1.539-0.689-1.539-1.539
					c0-0.85,0.689-1.539,1.539-1.539C281.714,244.724,282.403,245.413,282.403,246.263z"/>
				<path style="fill:none;stroke:#263238;stroke-miterlimit:10;" d="M264.704,247.609c0,0,0.385-2.309,3.848-2.886"/>
				<path style="fill:none;stroke:#263238;stroke-miterlimit:10;" d="M276.824,242.223c0,0,1.924-2.693,5.771-1.347"/>
				<path style="fill:none;stroke:#263238;stroke-miterlimit:10;" d="M272.977,247.802c0,0,1.539,3.27,1.539,3.848
					c0,0.577-0.192,1.731-0.192,1.731s-1.731,4.04-0.192,4.617c1.539,0.577,4.04,0.577,4.04,0.577"/>
				<line style="fill:none;stroke:#263238;stroke-miterlimit:10;" x1="277.786" y1="262.038" x2="281.056" y2="260.884"/>
			</g>
			<path style="fill:#FFFFFF;stroke:#263238;stroke-miterlimit:10;" d="M201.915,264.176c0,0,12.861,25.722,18.066,33.99
				c5.206,8.268,13.167,17.148,13.167,17.148s12.249,1.837,19.291,2.144c7.043,0.306,20.21-2.45,20.21-2.45
				s-18.985-26.028-23.578-37.358c-4.593-11.33-7.043-17.454-7.043-17.454S219.369,266.013,201.915,264.176z"/>
			<g>
				<path style="fill:#FFFFFF;stroke:#263238;stroke-miterlimit:10;" d="M345.875,310.477c0,0-50.14,11.906-52.887,11.681
					c-2.747-0.225-5.263,0.491-7.835-1.87c-2.572-2.361-12.629-10.865-14.386-11.93c-1.756-1.065-13.503-0.183-14.749,0.022
					c-1.246,0.205-4.042,0.591-2.286,1.656c1.756,1.065,6.079,0.805,7.3,0.904c1.221,0.1,7.86,1.565,7.86,1.565l-9.58,4.439
					c0,0-3.862,2.142-3.096,4.048c0.766,1.906,3.812-1.532,3.812-1.532l7.244-2.173l3.687-0.006l-6.428,3.468
					c0,0-0.044,4.298,1.102,5.313c1.146,1.015,5.213,0.119,5.213,0.119l4.603,0.069c0,0,5.854,3.551,7.075,3.651
					c1.221,0.1,4.323-0.261,4.323-0.261l1.221,0.1c0,0,42.269,1.961,51.269,0.854c9-1.107,15.715-0.558,18.736-3.69
					c3.021-3.132,3.688-10.925,2.642-13.161"/>
				<path style="fill:none;stroke:#263238;stroke-miterlimit:10;" d="M265.147,324.489c0,0,4.778-2.067,7.599-2.758"/>
			</g>
			<g>
				<path style="fill:#FFFFFF;stroke:#263238;stroke-miterlimit:10;" d="M201.806,285.456l1.453-4.035
					c0.478-1.327,1.505-2.384,2.819-2.897c2.23-0.869,5.524-2.12,6.003-2.12c0.734,0,4.404,0.489,4.159,2.202
					c-0.245,1.712-3.914,0.979-3.914,0.979s-3.425,0.489-4.404,1.468c-0.979,0.979-1.712,3.67-1.712,3.67L201.806,285.456z"/>
				<g>
					<path style="fill:#FFFFFF;stroke:#263238;stroke-miterlimit:10;" d="M201.494,283.198c0,0,7.294-1.412,8.47-1.412
						c1.176,0,10.352,3.294,10.352,4.706c0,1.412-1.176,2.118-1.176,2.118s0.941,2.823-0.235,3.764
						c-1.176,0.941-1.176,0.941-1.176,0.941s-0.706,2.117-1.412,2.117c-0.706,0-8.94,0.471-10.352,0.471
						c-1.412,0-5.176,1.647-5.882,0.235C199.376,294.726,200.082,286.962,201.494,283.198z"/>
					<path style="fill:none;stroke:#263238;stroke-miterlimit:10;" d="M219.14,288.609c0,0-7.294-2.823-8.47-2.823
						c-1.176,0-8.47,0.471-8.47,0.471"/>
					<path style="fill:none;stroke:#263238;stroke-miterlimit:10;" d="M217.728,293.315c0,0-7.058-2.823-7.764-2.823
						c-0.706,0-8.47,0.706-8.47,0.706"/>
				</g>
			</g>
			<g>
				<path style="fill:#263238;stroke:#263238;stroke-miterlimit:10;" d="M197.628,325.112c0,0,11.636,37.97,16.535,47.769
					c4.899,9.799,9.493,16.536,13.473,16.536c3.981,0,15.004,1.837,18.373,0.612c3.368-1.225-14.392-40.42-21.435-56.955
					c-7.043-16.535-13.473-18.985-17.76-17.148C202.528,317.763,197.628,325.112,197.628,325.112z"/>
				<g>
					<path style="fill:#FFFFFF;stroke:#263238;stroke-miterlimit:10;" d="M306.027,388.498c0,0,2.143-1.531,0-7.655
						c-2.144-6.124-28.172-31.54-42.564-45.013c-14.392-13.473-31.234-35.214-45.932-39.808c-14.698-4.593-19.291,2.45-28.171,6.737
						c-4.447,2.147-35.214,16.229-43.482,19.598c-8.268,3.368-37.664,12.861-41.951,13.473c-4.287,0.612-9.799-1.225-10.105,1.837
						c-0.306,3.062,9.799,7.962,13.473,9.186c3.675,1.225,16.842,2.45,21.435,3.062c4.593,0.612,7.962,3.062,11.024,0.612
						s8.268-13.78,12.555-14.698c4.287-0.919,22.047-6.124,32.152-6.124s26.028-8.88,26.028-8.88s22.966,51.137,26.334,57.874
						c3.368,6.737,1.837,13.167,22.354,14.698C279.693,394.929,303.884,391.56,306.027,388.498z"/>
					<g>
						<path style="fill:#9E9E9E;stroke:#263238;stroke-miterlimit:10;" d="M129.861,350.108c4.024,0.8,7.088,2.663,9.893,0.42
							c1.262-1.01,2.889-3.528,4.664-6.204C140.113,339.504,132.68,346.924,129.861,350.108z"/>
						<path style="fill:#9E9E9E;stroke:#263238;stroke-miterlimit:10;" d="M105.414,335.518c-0.633,0.153-1.146,0.263-1.486,0.311
							c-4.287,0.613-9.799-1.225-10.105,1.837c-0.306,3.062,9.799,7.962,13.473,9.186c0.018,0.006,0.041,0.012,0.06,0.018
							c0.765-1.16,1.458-2.6,1.778-4.305C109.651,339.802,107.44,337.233,105.414,335.518z"/>
					</g>
					<path style="fill:#263238;stroke:#263238;stroke-miterlimit:10;" d="M263.464,335.83
						c-14.392-13.473-31.234-35.214-45.932-39.807c-14.698-4.593-19.291,2.45-28.171,6.737
						c-3.198,1.544-26.317,11.376-38.583,16.842c2.955,2.186,7.655,2.756,8.88,7.961c0.705,2.996-0.838,5.59-0.612,6.737
						c5.275-0.721,19.598-2.756,28.784-4.593c9.909-1.982,22.66-8.88,22.66-8.88s22.966,51.137,26.334,57.874
						c3.368,6.737,1.837,13.167,22.354,14.698c20.516,1.531,44.707-1.837,46.85-4.899c0,0,2.143-1.531,0-7.655
						C303.884,374.719,277.856,349.303,263.464,335.83z"/>
					<g>
						<path style="fill:none;stroke:#6E6E6E;stroke-miterlimit:10;" d="M237.206,378.52c0.641,1.364,1.175,2.494,1.577,3.334"/>
						<path style="fill:none;stroke:#6E6E6E;stroke-miterlimit:10;" d="M203.099,324.847l7.39-4.022
							c0,0,16.594,36.015,24.737,53.463"/>
					</g>
				</g>
			</g>
			<g>
				<path style="fill:#FFFFFF;stroke:#263238;stroke-miterlimit:10;" d="M178.147,307.67c0,0-38.577,6.183-47.593,5.667
					c-9.016-0.516-29.709-5.105-38.265-8.449c-8.557-3.344-16.271-6.719-17.251-2.747c-0.98,3.972,4.503,15.582,8.797,17.675
					c4.294,2.093,16.001,7.01,16.593,7.832c0.592,0.822,7.015,7.337,12.1,7.995c5.085,0.659,11.37-4.35,14.418-5.585
					C129.993,328.822,161.866,316.135,178.147,307.67z"/>
				<path style="fill:#263238;stroke:#263238;stroke-miterlimit:10;" d="M142.266,312.619c2.126,1.801,4.964,4.824,5.914,8.703
					c10.247-4.334,21.981-9.5,29.968-13.652C178.147,307.67,156.908,311.074,142.266,312.619z"/>
				<path style="fill:#9E9E9E;stroke:#263238;stroke-miterlimit:10;" d="M84.947,304.03c0.802-0.403,1.583-0.767,2.339-1.098
					c-6.378-2.444-11.466-3.965-12.249-0.791c-0.575,2.331,1.077,7.292,3.407,11.417C78.79,311.21,80.082,306.478,84.947,304.03z"/>
				<path style="fill:#9E9E9E;stroke:#263238;stroke-miterlimit:10;" d="M114.584,322.634c-4.611,0.942-8.278,5.846-10.116,8.811
					c2.368,1.9,5.394,3.852,8.058,4.198c4.947,0.641,11.021-4.072,14.154-5.467C125.399,326.482,120.552,321.415,114.584,322.634z"
					/>
			</g>
		</g>
		<g>
			<path style="fill:#B8B8B8;stroke:#263238;stroke-miterlimit:10;" d="M189.049,382.93c0,0,50.798,2.396,58.466,2.396
				s64.217-3.355,70.926-3.355s2.396,94.888,2.396,94.888H190.487L189.049,382.93z"/>
			<line style="fill:none;stroke:#263238;stroke-miterlimit:10;" x1="302.351" y1="422.108" x2="317.153" y2="422.108"/>
			<line style="fill:none;stroke:#263238;stroke-miterlimit:10;" x1="213.063" y1="422.108" x2="297.551" y2="422.108"/>
			<line style="fill:none;stroke:#263238;stroke-miterlimit:10;" x1="200.016" y1="422.108" x2="207.302" y2="422.108"/>
			<path style="fill:#B8B8B8;stroke:#263238;stroke-miterlimit:10;" d="M203.164,474.83c0,0-1.344-100.779-2.688-114.216
				c-1.344-13.437-18.812-33.593-36.281-31.578s-24.859,18.14-24.187,30.234c0.672,12.094,23.515,22.171,23.515,28.218
				c0,6.047-13.437,65.171-17.468,76.592c-4.031,11.422,6.719,12.765,16.796,12.765s39.64,0,39.64,0L203.164,474.83z"/>
			<g>
				<path style="fill:none;stroke:#263238;stroke-miterlimit:10;" d="M165.025,396.645c-0.889,2.959-1.693,5.297-1.693,5.297"/>
				<path style="fill:none;stroke:#263238;stroke-miterlimit:10;" d="M147.318,367.111c7.607,8.407,19.617,14.813,20.018,18.416
					c0.143,1.283-0.324,3.735-0.984,6.359"/>
				<path style="fill:none;stroke:#263238;stroke-miterlimit:10;" d="M144.916,355.101c0,0-3.627,2.511-0.4,8.233"/>
				<line style="fill:none;stroke:#263238;stroke-miterlimit:10;" x1="199.551" y1="459.598" x2="199.764" y2="468"/>
				<line style="fill:none;stroke:#263238;stroke-miterlimit:10;" x1="197.676" y1="385.54" x2="199.379" y2="452.796"/>
				<line style="fill:none;stroke:#263238;stroke-miterlimit:10;" x1="197.362" y1="373.116" x2="197.554" y2="380.718"/>
				<path style="fill:none;stroke:#263238;stroke-miterlimit:10;" d="M181.176,337.498c-4.586-2.708-10.719-5.422-16.643-5.218"/>
				<path style="fill:none;stroke:#263238;stroke-miterlimit:10;" d="M188.554,342.69c0,0-1.446-1.259-3.812-2.902"/>
			</g>
			<path style="fill:#B8B8B8;stroke:#263238;stroke-miterlimit:10;" d="M313.308,474.83c0,0,1.344-100.779,2.687-114.216
				c1.344-13.437,18.812-33.593,36.281-31.578c17.468,2.016,24.859,18.14,24.187,30.234c-0.672,12.094-23.515,22.171-23.515,28.218
				c0,6.047,13.437,65.171,17.468,76.592c4.031,11.422-6.719,12.765-16.797,12.765c-10.078,0-39.64,0-39.64,0L313.308,474.83z"/>
			<g>
				<path style="fill:none;stroke:#263238;stroke-miterlimit:10;" d="M317.076,438.773c-0.008,4.241-0.008,6.807-0.008,6.807"/>
				<path style="fill:none;stroke:#263238;stroke-miterlimit:10;" d="M317.79,369.124c-0.484,14.647-0.644,44.689-0.697,62.442"/>
				<path style="fill:none;stroke:#263238;stroke-miterlimit:10;" d="M339.086,334.683c0,0-19.217,16.815-20.818,26.423
					c-0.048,0.286-0.094,0.686-0.137,1.189"/>
				<path style="fill:none;stroke:#263238;stroke-miterlimit:10;" d="M351.452,402.353c-0.946-3.909-1.556-6.417-1.556-6.417"/>
				<path style="fill:none;stroke:#263238;stroke-miterlimit:10;" d="M352.779,474.581c3.945-0.556,7.764-1.933,9.527-4.979
					c4.404-7.607,0.801-16.414-0.4-22.82c-0.815-4.347-6.055-26.207-9.339-39.81"/>
				<path style="fill:none;stroke:#263238;stroke-miterlimit:10;" d="M340.688,474.406c0,0,2.383,0.388,5.603,0.483"/>
				<path style="fill:none;stroke:#263238;stroke-miterlimit:10;" d="M361.852,372.629c-2.428,2.266-4.349,3.691-4.349,3.691"/>
				<path style="fill:none;stroke:#263238;stroke-miterlimit:10;" d="M367.512,343.891c0,0,5.605,5.605,4.004,14.413
					c-0.729,4.007-3.694,8.097-6.711,11.365"/>
			</g>
		</g>
	</g>
</g>
<g id="Floor">
	<g>
		<line style="fill:none;stroke:#263238;stroke-miterlimit:10;" x1="471" y1="476.859" x2="482" y2="476.859"/>
		<line style="fill:none;stroke:#263238;stroke-miterlimit:10;" x1="72" y1="476.859" x2="459" y2="476.859"/>
		<line style="fill:none;stroke:#263238;stroke-miterlimit:10;" x1="39" y1="476.859" x2="63" y2="476.859"/>
	</g>
</g>
</svg>
